<?xml version="1.0" standalone="no"?>
<!DOCTYPE svg PUBLIC "-//W3C//DTD SVG 20010904//EN"
 "http://www.w3.org/TR/2001/REC-SVG-20010904/DTD/svg10.dtd">
<svg version="1.0" xmlns="http://www.w3.org/2000/svg"
 width="50.000000pt" height="50.000000pt" viewBox="0 0 50.000000 50.000000"
 preserveAspectRatio="xMidYMid meet">
<metadata>
Created by potrace 1.16, written by Peter Selinger 2001-2019
</metadata>
<g transform="translate(0.000000,50.000000) scale(0.100000,-0.100000)"
fill="#000000" stroke="none">
<path d="M120 480 c-27 -27 -27 -93 0 -120 27 -27 93 -27 120 0 14 14 36 20
87 22 l68 3 0 35 0 35 -68 3 c-51 2 -73 8 -87 22 -27 27 -93 27 -120 0z"/>
<path d="M97 270 c-14 -34 -27 -50 -39 -50 -13 0 -18 -8 -18 -30 0 -20 5 -30
15 -30 12 0 15 -16 15 -80 l0 -80 45 0 c38 0 45 3 45 20 0 19 7 20 90 20 83 0
90 -1 90 -20 0 -17 7 -20 45 -20 l45 0 0 80 c0 64 3 80 15 80 10 0 15 10 15
30 0 22 -5 30 -18 30 -12 0 -25 16 -39 50 l-21 50 -132 0 -132 0 -21 -50z
m253 20 c19 -10 44 -69 34 -79 -8 -8 -261 -8 -268 0 -10 9 12 62 31 77 20 15
176 17 203 2z m-100 -110 c78 0 150 5 161 10 13 7 19 7 19 0 0 -5 -4 -10 -10
-10 -6 0 -10 -27 -10 -60 l0 -60 -160 0 -160 0 0 60 c0 33 -4 60 -10 60 -5 0
-10 5 -10 10 0 7 6 7 19 0 11 -5 83 -10 161 -10z"/>
</g>
</svg>
