<?xml version="1.0" standalone="no"?>
<!DOCTYPE svg PUBLIC "-//W3C//DTD SVG 20010904//EN"
 "http://www.w3.org/TR/2001/REC-SVG-20010904/DTD/svg10.dtd">
<svg version="1.0" xmlns="http://www.w3.org/2000/svg"
 width="48.000000pt" height="48.000000pt" viewBox="0 0 48.000000 48.000000"
 preserveAspectRatio="xMidYMid meet">
<metadata>
Created by potrace 1.16, written by Peter Selinger 2001-2019
</metadata>
<g transform="translate(0.000000,48.000000) scale(0.100000,-0.100000)"
fill="#000000" stroke="none">
<path d="M30 340 c-26 -52 -30 -70 -30 -143 0 -78 2 -85 28 -110 35 -34 90
-37 117 -7 26 29 124 29 150 0 28 -31 79 -26 125 12 39 32 40 34 40 100 l0 67
-37 10 c-21 6 -44 11 -50 11 -7 0 -26 27 -43 60 l-30 60 -120 0 -120 0 -30
-60z"/>
</g>
</svg>
