<?xml version="1.0" standalone="no"?>
<!DOCTYPE svg PUBLIC "-//W3C//DTD SVG 20010904//EN"
 "http://www.w3.org/TR/2001/REC-SVG-20010904/DTD/svg10.dtd">
<svg version="1.0" xmlns="http://www.w3.org/2000/svg"
 width="26.000000pt" height="26.000000pt" viewBox="0 0 26.000000 26.000000"
 preserveAspectRatio="xMidYMid meet">
<metadata>
Created by potrace 1.16, written by Peter Selinger 2001-2019
</metadata>
<g transform="translate(0.000000,26.000000) scale(0.100000,-0.100000)"
fill="#000000" stroke="none">
<path d="M53 229 l-53 -31 0 -99 c0 -88 2 -99 18 -99 14 0 17 8 16 44 -1 24
-4 48 -7 53 -8 12 2 23 19 23 8 0 11 -6 8 -15 -5 -13 7 -15 76 -15 69 0 81 2
76 15 -3 9 0 15 9 15 16 0 27 -14 18 -23 -3 -4 -6 -27 -7 -52 -1 -37 2 -45 17
-45 15 0 17 11 17 99 l0 100 -54 30 c-66 38 -88 38 -153 0z"/>
</g>
</svg>
