<?xml version="1.0" standalone="no"?>
<!DOCTYPE svg PUBLIC "-//W3C//DTD SVG 20010904//EN"
 "http://www.w3.org/TR/2001/REC-SVG-20010904/DTD/svg10.dtd">
<svg version="1.0" xmlns="http://www.w3.org/2000/svg"
 width="48.000000pt" height="48.000000pt" viewBox="0 0 48.000000 48.000000"
 preserveAspectRatio="xMidYMid meet">
<metadata>
Created by potrace 1.16, written by Peter Selinger 2001-2019
</metadata>
<g transform="translate(0.000000,48.000000) scale(0.100000,-0.100000)"
fill="#000000" stroke="none">
<path d="M16 425 c-22 -34 -20 -53 6 -58 l23 -4 -22 -2 c-23 -1 -23 -3 -23
-151 l0 -150 28 0 c16 0 32 -8 40 -20 17 -28 87 -28 104 0 18 29 118 29 136 0
9 -15 23 -20 52 -20 29 0 43 5 52 20 8 12 24 20 40 20 l28 0 0 84 c0 63 -5 97
-21 133 -31 73 -44 83 -106 83 l-53 0 0 -80 c0 -47 -4 -80 -10 -80 -6 0 -10
33 -10 80 l0 79 -67 4 c-38 2 -6 4 69 5 75 1 139 6 142 10 2 4 -5 22 -16 40
l-20 32 -178 0 -178 0 -16 -25z m244 -155 l0 -70 -120 0 -120 0 0 70 0 70 120
0 120 0 0 -70z m137 62 c26 -16 63 -122 63 -177 0 -47 -3 -55 -18 -55 -11 0
-24 11 -30 25 -21 45 -92 42 -107 -5 -5 -17 -15 -20 -64 -20 -52 0 -59 3 -69
25 -21 45 -92 42 -107 -5 -3 -11 -15 -20 -26 -20 -16 0 -19 7 -19 40 l0 40
150 0 150 0 0 80 0 80 33 0 c17 0 37 -4 44 -8z"/>
</g>
</svg>
