<?xml version="1.0" standalone="no"?>
<!DOCTYPE svg PUBLIC "-//W3C//DTD SVG 20010904//EN"
 "http://www.w3.org/TR/2001/REC-SVG-20010904/DTD/svg10.dtd">
<svg version="1.0" xmlns="http://www.w3.org/2000/svg"
 width="48.000000pt" height="48.000000pt" viewBox="0 0 48.000000 48.000000"
 preserveAspectRatio="xMidYMid meet">
<metadata>
Created by potrace 1.16, written by Peter Selinger 2001-2019
</metadata>
<g transform="translate(0.000000,48.000000) scale(0.100000,-0.100000)"
fill="#000000" stroke="none">
<path d="M91 363 c-72 -77 -91 -110 -91 -160 0 -35 5 -46 27 -60 16 -10 36
-28 46 -40 33 -41 127 -22 127 25 0 8 18 12 50 12 35 0 50 -4 50 -13 0 -43 92
-64 123 -29 10 10 17 23 17 29 0 6 9 13 20 16 17 4 20 14 20 65 0 55 -3 62
-31 86 -17 14 -40 26 -52 26 -13 0 -33 14 -49 33 -35 45 -85 67 -149 67 -52 0
-55 -2 -108 -57z m214 -43 c30 -27 63 -50 73 -50 27 0 50 -22 58 -55 7 -29 7
-30 -13 -12 -27 24 -85 22 -108 -3 -25 -28 -105 -28 -130 0 -25 27 -82 27
-112 -2 l-23 -21 0 28 c0 16 10 39 22 52 19 21 30 23 115 23 86 0 93 1 93 20
0 16 -7 20 -30 20 -25 0 -30 4 -30 25 0 38 23 31 85 -25z"/>
</g>
</svg>
