<?xml version="1.0" standalone="no"?>
<!DOCTYPE svg PUBLIC "-//W3C//DTD SVG 20010904//EN"
 "http://www.w3.org/TR/2001/REC-SVG-20010904/DTD/svg10.dtd">
<svg version="1.0" xmlns="http://www.w3.org/2000/svg"
 width="50.000000pt" height="50.000000pt" viewBox="0 0 50.000000 50.000000"
 preserveAspectRatio="xMidYMid meet">
<metadata>
Created by potrace 1.16, written by Peter Selinger 2001-2019
</metadata>
<g transform="translate(0.000000,50.000000) scale(0.100000,-0.100000)"
fill="#000000" stroke="none">
<path d="M273 375 c-3 -9 3 -25 12 -35 18 -20 17 -20 -28 -20 -40 0 -47 3 -47
20 0 13 -7 20 -20 20 -13 0 -20 -7 -20 -19 0 -15 -11 -19 -66 -25 -101 -10
-105 -15 -102 -94 3 -57 6 -67 22 -70 11 -2 27 -13 36 -25 23 -28 77 -27 101
1 15 19 27 22 89 22 62 0 74 -3 89 -22 24 -28 78 -29 101 -1 9 12 25 23 36 25
16 3 20 13 22 59 3 65 -1 70 -78 92 -37 11 -67 28 -90 52 -38 39 -48 42 -57
20z m150 -114 c32 -10 37 -16 37 -43 l0 -31 -21 27 c-27 34 -70 35 -97 1 -18
-23 -27 -25 -92 -25 -65 0 -74 2 -92 25 -27 34 -70 33 -98 -2 l-21 -28 3 40
c3 37 6 41 38 47 54 10 301 2 343 -11z"/>
</g>
</svg>
