<?xml version="1.0" standalone="no"?>
<!DOCTYPE svg PUBLIC "-//W3C//DTD SVG 20010904//EN"
 "http://www.w3.org/TR/2001/REC-SVG-20010904/DTD/svg10.dtd">
<svg version="1.0" xmlns="http://www.w3.org/2000/svg"
 width="48.000000pt" height="48.000000pt" viewBox="0 0 48.000000 48.000000"
 preserveAspectRatio="xMidYMid meet">
<metadata>
Created by potrace 1.16, written by Peter Selinger 2001-2019
</metadata>
<g transform="translate(0.000000,48.000000) scale(0.100000,-0.100000)"
fill="#000000" stroke="none">
<path d="M20 265 c0 -94 4 -141 13 -151 39 -48 48 -54 87 -54 39 0 80 26 80
50 0 6 14 10 30 10 17 0 30 -4 30 -10 0 -5 9 -19 20 -30 27 -27 94 -27 118 0
9 11 27 31 40 44 15 16 22 35 22 64 0 58 -7 71 -50 82 -28 8 -45 20 -61 48
-50 83 -47 82 -196 82 l-133 0 0 -135z"/>
</g>
</svg>
