<?xml version="1.0" standalone="no"?>
<!DOCTYPE svg PUBLIC "-//W3C//DTD SVG 20010904//EN"
 "http://www.w3.org/TR/2001/REC-SVG-20010904/DTD/svg10.dtd">
<svg version="1.0" xmlns="http://www.w3.org/2000/svg"
 width="64.000000pt" height="64.000000pt" viewBox="0 0 64.000000 64.000000"
 preserveAspectRatio="xMidYMid meet">
<metadata>
Created by potrace 1.16, written by Peter Selinger 2001-2019
</metadata>
<g transform="translate(0.000000,64.000000) scale(0.100000,-0.100000)"
fill="#000000" stroke="none">
<path d="M215 635 c-5 -2 -29 -9 -52 -15 l-43 -11 0 -79 c0 -48 4 -80 10 -80
6 0 4 -10 -4 -22 -8 -13 -17 -38 -21 -55 -6 -30 -10 -33 -46 -33 -39 0 -39 0
-39 -40 0 -25 5 -40 13 -40 9 0 11 -20 9 -76 -2 -46 1 -81 7 -87 6 -6 11 -26
11 -44 0 -30 -3 -33 -30 -33 -17 0 -30 -4 -30 -10 0 -6 113 -10 320 -10 207 0
320 4 320 10 0 6 -13 10 -30 10 -27 0 -30 3 -30 33 0 18 5 38 11 44 6 6 9 41
7 87 -2 56 0 76 10 76 7 0 12 15 12 40 0 40 0 40 -39 40 -37 0 -39 1 -50 44
-16 64 -38 76 -138 76 -49 0 -83 4 -83 10 0 6 38 10 93 10 95 0 117 8 117 40
0 9 -10 26 -23 38 -20 19 -35 22 -103 22 -79 0 -80 0 -91 30 -10 25 -16 30
-45 29 -18 0 -37 -2 -43 -4z m65 -50 c8 -21 16 -25 49 -25 22 0 42 -4 45 -9 4
-5 25 -8 49 -7 50 3 73 -10 56 -30 -8 -10 -37 -14 -100 -14 -86 0 -90 -1 -101
-25 -10 -22 -15 -25 -47 -19 -88 17 -86 15 -86 74 l0 54 45 12 c68 18 80 17
90 -11z m180 -158 c34 -17 77 -134 51 -139 -9 -2 -21 6 -26 17 -16 31 -96 29
-110 -2 -9 -22 -16 -23 -110 -23 -135 0 -148 4 -140 44 4 17 14 47 23 66 17
35 17 35 79 32 35 -1 64 2 68 8 9 14 135 12 165 -3z m98 -176 c2 -5 -12 -12
-30 -16 -64 -13 -68 -15 -68 -46 0 -29 0 -29 60 -29 41 0 60 -4 60 -12 0 -10
-59 -13 -260 -13 -201 0 -260 3 -260 13 0 8 19 12 60 12 60 0 60 0 60 29 0 31
-4 33 -67 46 -30 6 -40 15 -29 26 9 9 471 -1 474 -10z m-78 -201 l0 -30 -160
0 -160 0 0 30 0 30 160 0 160 0 0 -30z"/>
</g>
</svg>
